# xmcd
#
# Track frame offsets: 
#        150
#        25358
#        51281
#        65068
#        78853
#        98917
#        125136
#        153423
#
# Disc length: 2354 seconds
#
# Revision: 1
# Processed by: cddbd v1.5.2PL0 Copyright (c) Steve Scherf et al.
# Submitted via: ExactAudioCopyFreeDBPlugin 1.0
#
DISCID=6a093008
DTITLE=Calvin Russell - Contrabendo disc I
DYEAR=2010
DGENRE=Blues
TTITLE0=Are You Ready
TTITLE1=Free In Freedom
TTITLE2=Don't Want To Go To Heaven
TTITLE3=Midnight Man
TTITLE4=When You Smile
TTITLE5=Wild Wild West
TTITLE6=Petit Gars
TTITLE7=Different People
EXTD=
EXTT0=
EXTT1=
EXTT2=
EXTT3=
EXTT4=
EXTT5=
EXTT6=
EXTT7=
PLAYORDER=
